<?xml version="1.0" standalone="no"?>
<!DOCTYPE svg PUBLIC "-//W3C//DTD SVG 20010904//EN"
 "http://www.w3.org/TR/2001/REC-SVG-20010904/DTD/svg10.dtd">
<svg version="1.0" xmlns="http://www.w3.org/2000/svg"
 width="1024.000000pt" height="1024.000000pt" viewBox="0 0 1024.000000 1024.000000"
 preserveAspectRatio="xMidYMid meet">

<g transform="translate(0.000000,1024.000000) scale(0.100000,-0.100000)"
fill="#000000" stroke="none">
<path d="M4776 9572 c-9 -14 14 -107 40 -159 32 -67 93 -119 163 -140 31 -9
59 -19 63 -22 11 -9 -3 -24 -37 -41 -88 -45 -101 -175 -27 -253 15 -16 39 -35
55 -43 25 -13 27 -19 27 -74 l0 -60 -34 0 c-45 0 -90 -38 -112 -95 -13 -36
-15 -62 -10 -123 4 -42 9 -112 13 -154 l6 -78 -25 0 c-31 0 -38 19 -38 116 0
58 -4 74 -20 89 -24 21 -65 14 -80 -16 -7 -12 -12 -94 -13 -204 l-2 -185 -90
0 -90 1 -27 39 c-15 21 -51 56 -80 78 -67 49 -81 70 -122 182 -38 106 -80 169
-137 207 -36 24 -55 29 -125 31 -48 3 -90 -1 -103 -7 -28 -15 -27 -58 1 -88
20 -21 23 -39 28 -143 8 -148 12 -154 97 -148 l64 4 -6 -61 c-3 -33 -9 -61
-13 -63 -4 -1 -22 -11 -40 -22 -56 -34 -72 -88 -79 -255 l-6 -145 -108 0
c-126 0 -129 -2 -129 -94 l0 -56 -1070 0 c-1047 0 -1070 0 -1080 -19 -14 -27
-13 -124 2 -139 7 -7 38 -12 70 -12 l58 0 -2 -187 -3 -188 -165 0 c-91 0 -171
-4 -177 -8 -8 -5 -13 -33 -13 -76 l0 -67 102 -137 103 -137 42 0 43 0 0 -144
0 -145 -48 -3 -47 -3 -3 -142 c-3 -155 7 -195 49 -208 l22 -7 -6 -307 c-4
-168 -13 -547 -21 -841 -8 -294 -18 -694 -22 -887 l-6 -353 -38 0 c-21 0 -43
-6 -49 -14 -17 -21 -27 -207 -12 -234 10 -18 21 -22 61 -22 59 0 70 14 70 90
l0 51 293 -3 292 -3 3 -55 c2 -30 8 -60 14 -67 16 -19 104 -17 112 3 10 26 7
214 -4 235 -8 14 -21 19 -49 19 l-38 0 -7 248 c-3 136 -13 564 -21 952 -8 388
-17 813 -21 945 l-6 241 25 11 c15 7 32 29 43 57 l19 46 233 0 232 0 0 -24 c0
-28 45 -86 66 -86 17 0 17 60 -1 -585 -8 -291 -19 -710 -25 -930 -5 -220 -13
-507 -16 -637 l-7 -237 -46 -3 -46 -3 -5 -80 c-3 -44 -3 -102 0 -130 l5 -50
53 -3 c71 -4 82 6 82 79 l0 59 292 -2 292 -3 -3 -47 c-4 -70 10 -88 67 -88 27
0 53 5 60 12 8 8 12 48 12 113 0 119 -12 145 -66 145 -27 0 -34 4 -34 20 0 10
-7 252 -15 537 -8 285 -22 810 -31 1167 l-17 648 27 22 c15 11 33 39 40 61
l14 40 215 5 c193 4 217 7 236 24 12 11 21 30 21 43 l0 23 1190 0 1190 0 0
-23 c0 -13 9 -32 21 -43 19 -17 38 -19 188 -19 257 -1 251 0 251 -31 0 -25 41
-76 69 -85 13 -5 13 -84 2 -590 -6 -321 -18 -809 -26 -1084 -8 -275 -15 -548
-15 -607 l0 -108 -39 0 c-57 0 -66 -17 -68 -129 -2 -129 3 -141 65 -141 26 0
53 5 60 12 7 7 12 38 12 70 l0 58 293 -2 292 -3 0 -57 c0 -31 5 -62 11 -68 6
-6 35 -10 65 -8 l54 3 3 119 c2 78 -1 123 -9 132 -6 8 -29 14 -50 14 l-39 0 0
48 c0 69 -28 1161 -36 1407 -10 302 -20 853 -16 898 2 21 8 37 16 37 23 0 56
45 56 78 l0 31 88 3 c48 2 153 2 235 0 l147 -3 0 -33 c0 -33 26 -66 63 -80 17
-6 18 -16 13 -134 -4 -70 -11 -372 -16 -672 -6 -300 -15 -725 -20 -945 -5
-220 -10 -453 -10 -517 l0 -118 -33 0 c-57 0 -67 -21 -67 -141 0 -68 4 -109
12 -117 16 -16 107 -16 113 1 2 6 6 37 10 68 l6 55 294 2 294 2 3 -67 3 -68
54 -3 c37 -2 57 1 62 10 14 21 11 232 -3 246 -7 7 -31 12 -53 12 l-42 0 -7
353 c-3 193 -9 422 -11 507 -19 576 -25 774 -30 1000 -3 140 -8 315 -11 388
l-6 132 31 11 c17 6 36 19 41 29 6 10 10 89 10 174 l0 156 -45 0 -45 0 0 129
c0 71 -3 136 -6 145 -5 13 2 16 37 16 53 0 53 0 109 75 147 198 150 203 150
265 0 88 -4 89 -193 85 -115 -2 -159 0 -162 8 -2 7 -5 92 -7 190 l-3 177 48 0
c77 0 87 10 87 83 0 36 -5 68 -12 75 -9 9 -262 12 -1079 12 l-1067 0 -4 65
c-2 36 -9 70 -16 77 -8 8 -49 12 -120 13 l-107 0 -5 136 c-5 121 -9 141 -33
190 -16 34 -40 62 -62 77 -34 21 -35 25 -35 82 l0 59 48 -5 c26 -3 59 -1 73 4
26 10 26 12 31 135 5 118 7 127 31 157 32 37 32 39 11 69 -16 22 -22 23 -103
19 -106 -5 -151 -26 -203 -93 -20 -26 -53 -93 -75 -148 -36 -95 -41 -102 -118
-172 -45 -41 -87 -85 -95 -99 -13 -25 -18 -26 -97 -26 l-83 0 0 188 c0 184 -1
189 -23 210 -13 12 -31 22 -40 22 -24 0 -47 -39 -47 -80 0 -19 -3 -59 -6 -87
-6 -50 -8 -53 -36 -53 l-29 0 8 93 c13 154 10 258 -10 294 -20 38 -63 63 -107
63 -30 0 -30 0 -30 58 0 53 2 59 30 75 70 42 109 128 90 199 -13 48 -68 108
-99 108 -16 0 -21 6 -21 25 0 21 5 25 28 25 44 0 126 44 160 86 43 52 72 116
79 177 l6 50 -34 -6 c-19 -4 -63 -22 -99 -39 -58 -30 -68 -39 -96 -92 -38 -75
-54 -82 -54 -24 0 53 -16 112 -34 127 -36 30 -66 -28 -66 -128 0 -49 -1 -52
-17 -40 -9 8 -27 37 -39 66 -21 48 -28 54 -105 92 -79 40 -113 49 -123 33z
m384 -442 c24 -24 26 -57 4 -88 -11 -16 -25 -22 -54 -22 -29 0 -43 6 -54 22
-34 48 -4 108 54 108 17 0 39 -9 50 -20z m-940 -1162 c19 -10 50 -18 68 -18
l32 0 0 -105 0 -105 -90 0 -91 0 6 133 c8 155 11 171 28 137 7 -14 28 -33 47
-42z m528 -95 l2 -133 -58 0 -59 0 -6 83 c-4 45 -7 106 -7 135 l0 53 63 -3 62
-3 3 -132z m163 42 c13 -49 61 -101 106 -116 25 -8 33 -16 33 -35 0 -24 -2
-24 -85 -24 l-85 0 0 128 c0 71 3 132 8 136 4 4 8 -5 10 -21 1 -15 7 -46 13
-68z m439 -52 l0 -123 -90 0 c-88 0 -90 1 -90 24 0 18 7 25 29 29 34 7 87 50
106 86 7 15 16 49 18 76 3 28 6 52 6 55 1 3 6 -2 11 -10 5 -8 10 -70 10 -137z
m257 50 c-4 -54 -7 -115 -7 -135 l0 -38 -55 0 -55 0 0 135 0 135 62 0 61 0 -6
-97z m467 51 c3 -26 6 -87 6 -135 l0 -89 -85 0 -85 0 0 104 0 104 45 7 c26 3
57 17 73 30 15 14 30 25 33 25 4 0 9 -21 13 -46z m-284 -134 c0 -83 -1 -90
-20 -90 -12 0 -20 7 -20 18 0 20 32 162 37 162 2 0 3 -40 3 -90z m-1326 8 c4
-29 10 -64 13 -76 5 -20 2 -23 -13 -20 -16 3 -19 13 -20 76 -1 84 10 95 20 20z
m1861 -298 l0 -65 -1205 0 -1205 0 -3 54 c-2 29 -1 60 2 67 4 11 220 13 1208
11 l1203 -2 0 -65z m-2533 -147 c3 -38 3 -38 51 -41 l47 -3 0 -150 0 -149
-1000 0 -1000 0 0 190 0 190 949 0 950 0 3 -37z m4548 -153 l0 -190 -477 -2
c-263 -2 -714 -2 -1003 0 l-525 2 2 148 2 147 48 5 c47 5 48 6 51 43 l3 37
950 0 949 0 0 -190z m-2140 -40 l0 -150 -1085 0 -1085 0 0 150 0 150 1085 0
1085 0 0 -150z m2445 -302 c4 -4 -17 -36 -47 -73 l-53 -66 -3430 0 -3429 0
-53 68 -53 68 253 5 c386 8 6804 6 6812 -2z m-1977 -276 l1742 -2 0 -145 0
-145 -3295 0 -3295 0 0 145 0 145 1283 2 c705 2 1404 3 1552 3 149 0 1054 -1
2013 -3z m-4518 -487 l0 -45 -205 0 -205 0 0 45 0 45 205 0 205 0 0 -45z
m1170 0 l0 -45 -210 0 -210 0 0 45 0 45 210 0 210 0 0 -45z m4020 0 l0 -45
-215 0 -215 0 0 45 0 45 215 0 215 0 0 -45z m1160 0 l0 -45 -205 0 -205 0 0
45 0 45 205 0 205 0 0 -45z m-6416 -622 c7 -468 21 -1156 32 -1645 l7 -288
-190 0 -190 0 4 98 c2 53 10 410 18 792 9 382 20 839 25 1015 5 176 10 355 10
398 l0 77 138 0 139 0 7 -447z m1168 7 c4 -239 16 -751 28 -1137 11 -385 20
-724 20 -752 l0 -51 -190 0 -190 0 0 85 c0 92 34 1396 50 1930 5 182 10 338
10 348 0 16 11 17 133 15 l132 -3 7 -435z m4012 133 c13 -587 27 -1180 36
-1503 5 -179 10 -380 10 -447 l0 -123 -187 0 -188 0 11 467 c7 258 17 718 23
1023 6 305 13 611 16 680 3 69 5 144 5 168 l0 42 134 0 134 0 6 -307z m1160
285 c4 -23 27 -876 46 -1753 6 -242 11 -477 13 -522 l3 -83 -193 0 -193 0 5
123 c8 188 24 906 35 1602 6 347 13 636 15 643 3 9 39 12 134 12 127 0 131 -1
135 -22z"/>
<path d="M4075 6006 c-42 -18 -93 -79 -100 -120 -13 -69 17 -143 73 -178 l32
-20 0 -147 c0 -143 -1 -148 -26 -182 -32 -41 -78 -138 -93 -196 -12 -43 -12
-43 -59 -43 -65 0 -129 -34 -167 -88 l-30 -44 0 -211 c0 -117 4 -229 8 -250
16 -74 108 -146 188 -147 l36 0 12 -67 c36 -195 156 -350 336 -434 92 -42 176
-59 298 -59 l87 0 0 -64 0 -65 -252 -3 -253 -3 -70 -35 c-84 -42 -182 -135
-213 -203 -26 -56 -45 -143 -36 -169 4 -15 16 -18 70 -18 46 0 64 4 64 13 0
41 35 119 71 161 38 43 102 86 129 86 6 0 10 -32 10 -84 0 -46 3 -104 6 -130
l7 -46 63 0 64 0 0 145 0 145 785 0 785 0 0 -145 0 -145 65 0 c36 0 65 3 65 8
2 70 14 248 16 251 11 12 91 -39 130 -82 39 -44 74 -120 74 -164 0 -11 15 -13
63 -11 l62 3 -1 65 c-2 144 -121 282 -291 339 -56 19 -86 21 -287 21 l-224 0
-4 64 -3 63 125 6 c144 7 223 27 315 82 154 93 263 252 283 415 l7 55 50 6
c62 8 105 29 139 69 43 51 48 88 44 327 -3 247 -2 243 -82 307 -30 25 -48 31
-100 34 l-63 4 -13 52 c-14 58 -52 136 -86 182 -23 29 -24 39 -24 177 l0 147
39 39 c89 89 60 243 -54 286 -103 40 -202 -23 -213 -134 -5 -61 24 -130 70
-162 30 -22 30 -22 26 -105 -1 -45 -5 -85 -8 -87 -3 -3 -40 12 -83 32 -42 21
-103 43 -134 50 -38 7 -254 11 -682 11 -701 0 -708 -1 -836 -68 l-75 -39 0 98
c0 88 2 98 20 104 27 9 61 59 71 106 30 132 -105 248 -226 195z m1746 -552
c30 -9 74 -27 99 -42 64 -37 158 -129 185 -182 53 -104 55 -127 55 -516 0
-334 -2 -367 -20 -427 -26 -85 -87 -175 -153 -225 -135 -103 -124 -102 -872
-102 -686 0 -689 0 -803 57 -108 54 -195 172 -227 304 -18 80 -22 686 -4 771
26 122 132 263 242 320 113 58 96 57 798 57 561 1 652 -1 700 -15z m-1881
-699 l0 -235 -32 0 c-65 0 -68 11 -68 230 0 208 1 215 50 233 51 19 50 25 50
-228z m2440 208 c12 -11 16 -51 18 -208 3 -185 2 -195 -17 -214 -12 -12 -34
-21 -51 -21 l-30 0 0 235 0 235 33 -7 c17 -3 39 -12 47 -20z m-950 -1203 l0
-70 -315 0 -315 0 0 70 0 70 315 0 315 0 0 -70z"/>
<path d="M4500 5131 c-94 -31 -183 -112 -227 -206 -24 -52 -28 -72 -27 -150 0
-115 26 -183 96 -261 71 -77 132 -106 235 -112 75 -4 87 -2 146 26 83 38 141
96 180 180 29 61 32 76 32 162 0 84 -3 103 -29 157 -32 70 -107 147 -177 184
-47 24 -180 36 -229 20z m178 -140 c86 -44 135 -125 135 -221 0 -77 -26 -137
-82 -188 -143 -131 -361 -18 -362 187 -1 69 16 114 62 166 63 72 169 96 247
56z"/>
<path d="M4540 4883 c-106 -55 -104 -193 4 -247 48 -23 98 -11 141 34 26 28
30 39 30 90 0 55 -3 63 -35 95 -44 44 -91 53 -140 28z"/>
<path d="M5523 5120 c-75 -30 -146 -98 -185 -178 -31 -63 -33 -73 -33 -177 0
-106 1 -112 34 -173 66 -122 178 -192 306 -192 128 0 240 70 306 192 33 61 34
67 34 173 0 101 -2 115 -29 170 -36 73 -104 143 -171 175 -70 34 -190 38 -262
10z m217 -135 c82 -41 129 -122 130 -221 1 -127 -104 -238 -225 -238 -164 0
-275 193 -201 349 58 123 181 168 296 110z"/>
<path d="M5593 4885 c-66 -28 -94 -130 -55 -197 24 -41 85 -72 128 -63 134 25
149 216 21 264 -37 14 -55 13 -94 -4z"/>
<path d="M4806 4334 c-42 -42 -23 -106 35 -118 62 -12 542 -7 569 7 36 18 41
88 8 111 -34 24 -589 24 -612 0z"/>
<path d="M2435 2941 l-200 -6 -5 -519 c-3 -350 -2 -524 5 -533 9 -12 61 -14
310 -11 285 3 303 5 357 26 162 65 232 256 153 418 -22 45 -43 68 -114 121 -3
2 5 10 17 19 69 48 102 197 68 302 -24 72 -93 134 -179 161 -83 25 -160 29
-412 22z m294 -201 c102 -29 120 -138 32 -197 -31 -21 -45 -23 -167 -23 l-132
0 -7 104 c-4 57 -4 109 -1 115 9 14 228 15 275 1z m58 -443 c80 -43 83 -151 6
-203 -24 -16 -51 -19 -183 -22 l-155 -4 3 127 3 127 147 -4 c116 -3 154 -7
179 -21z"/>
<path d="M4382 2938 c-9 -9 -12 -140 -12 -530 0 -598 -13 -538 117 -538 134 0
123 -16 123 186 l0 174 88 0 87 -1 105 -177 106 -177 118 0 c96 0 121 3 128
15 8 12 -16 56 -101 187 -61 94 -111 174 -111 177 0 3 14 13 31 22 57 29 115
92 144 156 23 52 28 75 28 152 1 83 -2 97 -31 157 -50 103 -141 172 -260 198
-75 16 -544 15 -560 -1z m491 -213 c47 -8 102 -55 117 -100 23 -69 -22 -148
-99 -174 -19 -6 -90 -11 -157 -11 l-124 0 0 145 0 144 98 3 c102 4 105 4 165
-7z"/>
<path d="M5512 2938 c-19 -19 -17 -1041 2 -1057 9 -8 112 -11 357 -9 l344 3 5
55 c3 30 3 78 0 105 l-5 50 -237 3 -238 2 0 424 c0 377 -2 425 -16 430 -29 11
-199 7 -212 -6z"/>
<path d="M6461 2936 c-8 -9 -10 -159 -9 -537 l3 -524 104 -3 c67 -2 108 1 117
9 19 16 21 1038 2 1057 -18 18 -202 16 -217 -2z"/>
<path d="M7002 2938 c-9 -9 -12 -141 -12 -534 0 -467 2 -523 16 -528 32 -12
191 -7 203 7 7 9 12 120 13 341 l3 327 234 -335 c149 -214 242 -336 255 -340
41 -11 202 -6 214 6 17 17 17 1039 0 1056 -14 14 -185 17 -205 4 -10 -6 -13
-93 -15 -355 l-3 -347 -123 178 c-68 97 -175 251 -238 342 -63 91 -122 171
-131 178 -22 16 -194 17 -211 0z"/>
<path d="M3327 2933 c-4 -3 -7 -239 -7 -523 0 -388 3 -519 12 -528 9 -9 105
-12 369 -12 197 0 364 3 373 6 13 5 16 23 16 95 0 125 14 119 -287 119 l-243
0 0 105 0 105 213 0 c152 0 216 3 225 12 16 16 16 180 0 196 -9 9 -73 12 -225
12 l-213 0 0 105 0 105 254 0 c205 0 256 3 265 14 8 9 11 46 9 103 l-3 88
-376 3 c-206 1 -378 -1 -382 -5z"/>
<path d="M2545 1598 c-3 -7 -4 -224 -3 -483 l3 -470 275 0 c301 0 326 3 406
58 69 46 99 108 99 207 0 92 -27 148 -97 200 l-47 34 34 32 c45 41 65 90 65
160 0 149 -81 238 -241 264 -96 15 -488 13 -494 -2z m471 -184 c58 -27 81 -96
48 -142 -29 -42 -65 -52 -192 -52 -140 0 -132 -8 -132 128 l0 82 121 0 c91 0
129 -4 155 -16z m23 -390 c56 -22 80 -72 60 -128 -23 -64 -57 -76 -221 -76
l-138 0 0 110 0 110 130 0 c95 0 140 -4 169 -16z"/>
<path d="M3542 1593 c-4 -10 -7 -162 -7 -338 0 -308 1 -322 23 -387 38 -110
132 -197 251 -232 68 -20 217 -21 287 -2 71 19 149 63 186 105 17 19 45 65 62
101 l31 65 3 334 c4 398 12 371 -114 371 -55 0 -85 -4 -91 -12 -4 -7 -8 -150
-8 -318 0 -300 0 -306 -24 -353 -34 -69 -85 -100 -171 -105 -53 -3 -75 0 -107
17 -44 22 -89 70 -105 110 -6 15 -11 154 -12 331 -1 168 -5 311 -9 318 -6 8
-37 12 -98 12 -76 0 -91 -3 -97 -17z"/>
<path d="M4635 1599 c-3 -8 -4 -225 -3 -484 l3 -470 212 -3 c160 -2 231 1 285
13 207 43 350 193 377 397 36 261 -93 467 -335 534 -82 23 -531 33 -539 13z
m486 -205 c183 -55 241 -316 102 -465 -65 -70 -123 -89 -268 -89 l-115 0 0
285 0 285 113 0 c75 0 132 -5 168 -16z"/>
<path d="M5733 1604 c-10 -4 -13 -110 -13 -479 0 -422 2 -474 16 -479 33 -13
408 -6 478 9 248 52 386 223 386 475 0 193 -74 326 -226 407 -107 57 -156 65
-404 69 -124 2 -231 1 -237 -2z m473 -209 c112 -33 178 -132 178 -265 0 -95
-28 -165 -90 -219 -60 -53 -124 -71 -250 -71 l-104 0 0 285 0 285 108 0 c67 0
128 -6 158 -15z"/>
<path d="M6684 1595 c-3 -8 69 -139 170 -306 l176 -293 0 -166 c0 -116 4 -170
12 -178 16 -16 180 -16 196 0 8 8 12 62 12 178 l0 165 175 290 c97 159 174
296 173 305 -3 12 -22 15 -112 15 l-109 0 -112 -198 c-62 -108 -114 -200 -117
-202 -3 -3 -54 79 -113 182 -59 103 -114 196 -123 206 -12 14 -33 17 -119 17
-81 0 -105 -3 -109 -15z"/>
</g>
</svg>
